<svg width="471" height="583" viewBox="0 0 471 583" fill="none" xmlns="http://www.w3.org/2000/svg">
<rect x="1" y="1" width="460" height="73" rx="15" stroke="white" stroke-opacity="0.43" stroke-width="2"/>
<rect x="10" y="12" width="460" height="73" rx="16" stroke="white" stroke-opacity="0.43" stroke-width="2"/>
<path d="M89.0152 54L97.6126 31.1581H100.531L92.3146 54H89.0152ZM106.686 54L98.4692 31.1581H101.546L110.176 54H106.686ZM93.3615 44.895H105.607V47.6868H93.3615V44.895ZM121.833 54.2855C120.31 54.2855 119.041 53.926 118.026 53.2069C117.011 52.4666 116.344 51.4409 116.027 50.1296L116.344 50.0661V54H113.204V31.1581H116.503V41.5321L116.154 41.437C116.514 40.2103 117.212 39.248 118.248 38.55C119.305 37.8521 120.574 37.5031 122.055 37.5031C123.514 37.5031 124.773 37.8521 125.83 38.55C126.909 39.248 127.734 40.2209 128.305 41.4687C128.897 42.7165 129.193 44.1759 129.193 45.8467C129.193 47.5387 128.886 49.0192 128.273 50.2882C127.66 51.5572 126.803 52.5407 125.703 53.2386C124.603 53.9366 123.313 54.2855 121.833 54.2855ZM121.135 51.5572C122.573 51.5572 123.715 51.0496 124.561 50.0344C125.407 49.0192 125.83 47.6233 125.83 45.8467C125.83 44.0913 125.407 42.7271 124.561 41.7542C123.715 40.7602 122.562 40.2632 121.103 40.2632C119.665 40.2632 118.512 40.7708 117.645 41.7859C116.799 42.78 116.376 44.1653 116.376 45.9419C116.376 47.6762 116.799 49.0509 117.645 50.0661C118.512 51.0602 119.675 51.5572 121.135 51.5572ZM139.478 54.3172C137.829 54.3172 136.38 53.9577 135.132 53.2386C133.884 52.4984 132.911 51.4937 132.213 50.2247C131.516 48.9346 131.167 47.4753 131.167 45.8467C131.167 44.197 131.516 42.7483 132.213 41.5004C132.933 40.2526 133.905 39.2797 135.132 38.5817C136.38 37.8626 137.829 37.5031 139.478 37.5031C141.149 37.5031 142.609 37.8626 143.856 38.5817C145.104 39.2797 146.067 40.2526 146.743 41.5004C147.441 42.7483 147.79 44.197 147.79 45.8467C147.79 47.4753 147.441 48.9346 146.743 50.2247C146.067 51.4937 145.104 52.4984 143.856 53.2386C142.609 53.9577 141.149 54.3172 139.478 54.3172ZM139.478 51.6206C140.473 51.6206 141.329 51.3774 142.048 50.891C142.788 50.4045 143.37 49.7277 143.793 48.8606C144.216 47.9934 144.428 46.9782 144.428 45.815C144.428 44.0807 143.962 42.7165 143.032 41.7225C142.122 40.7073 140.938 40.1997 139.478 40.1997C138.04 40.1997 136.856 40.7073 135.925 41.7225C135.016 42.7377 134.561 44.1019 134.561 45.815C134.561 46.9782 134.762 47.9934 135.164 48.8606C135.587 49.7277 136.169 50.4045 136.909 50.891C137.67 51.3774 138.527 51.6206 139.478 51.6206ZM156.128 54.3172C155.05 54.3172 154.098 54.0952 153.273 53.651C152.448 53.1857 151.803 52.5512 151.338 51.7475C150.894 50.9438 150.672 50.0238 150.672 48.9875V37.8203H153.971V48.2261C153.971 49.347 154.246 50.1824 154.796 50.7323C155.346 51.2822 156.128 51.5572 157.143 51.5572C158.053 51.5572 158.857 51.3457 159.555 50.9227C160.274 50.4997 160.834 49.9181 161.236 49.1778C161.659 48.4164 161.87 47.5387 161.87 46.5447L162.283 50.4151C161.754 51.5995 160.94 52.5512 159.84 53.2703C158.761 53.9683 157.524 54.3172 156.128 54.3172ZM161.997 54V50.193H161.87V37.8203H165.138V54H161.997ZM176.173 54.3172C174.29 54.3172 172.905 53.8837 172.017 53.0165C171.15 52.1282 170.716 50.8275 170.716 49.1144V34.1085L173.984 32.8713V49.1461C173.984 49.9921 174.206 50.616 174.65 51.0179C175.094 51.4197 175.813 51.6206 176.807 51.6206C177.188 51.6206 177.526 51.5889 177.822 51.5255C178.118 51.462 178.372 51.388 178.584 51.3034V53.9683C178.351 54.074 178.023 54.1586 177.6 54.2221C177.177 54.2855 176.701 54.3172 176.173 54.3172ZM167.48 40.4535V37.8203H178.584V40.4535H167.48ZM200.161 54.3172C198.279 54.3172 196.893 53.8837 196.005 53.0165C195.138 52.1282 194.704 50.8275 194.704 49.1144V34.1085L197.972 32.8713V49.1461C197.972 49.9921 198.194 50.616 198.638 51.0179C199.082 51.4197 199.801 51.6206 200.795 51.6206C201.176 51.6206 201.514 51.5889 201.811 51.5255C202.107 51.462 202.36 51.388 202.572 51.3034V53.9683C202.339 54.074 202.011 54.1586 201.588 54.2221C201.165 54.2855 200.69 54.3172 200.161 54.3172ZM191.468 40.4535V37.8203H202.572V40.4535H191.468ZM205.383 54V31.1581H208.682V54H205.383ZM216.867 54V43.5943C216.867 42.4733 216.582 41.6379 216.011 41.088C215.461 40.5381 214.636 40.2632 213.536 40.2632C212.584 40.2632 211.738 40.4747 210.998 40.8977C210.279 41.3206 209.708 41.9023 209.285 42.6425C208.883 43.3828 208.682 44.2605 208.682 45.2757L208.27 41.4052C208.799 40.1997 209.613 39.248 210.713 38.55C211.812 37.8521 213.092 37.5031 214.551 37.5031C216.286 37.5031 217.65 37.9895 218.644 38.9624C219.638 39.9353 220.135 41.2255 220.135 42.8329V54H216.867ZM231.284 54.3172C229.656 54.3172 228.218 53.9577 226.97 53.2386C225.743 52.5195 224.781 51.5255 224.083 50.2565C223.385 48.9875 223.036 47.5281 223.036 45.8784C223.036 44.2076 223.374 42.7483 224.051 41.5004C224.749 40.2314 225.722 39.248 226.97 38.55C228.218 37.8521 229.645 37.5031 231.253 37.5031C232.818 37.5031 234.171 37.8415 235.313 38.5183C236.477 39.1739 237.365 40.094 237.978 41.2783C238.613 42.4627 238.93 43.8692 238.93 45.4977C238.93 45.7515 238.919 45.9948 238.898 46.2274C238.898 46.4389 238.877 46.661 238.835 46.8936H225.257V44.4191H236.519L235.694 45.4026C235.694 43.6683 235.303 42.3464 234.52 41.437C233.738 40.5275 232.649 40.0728 231.253 40.0728C229.751 40.0728 228.556 40.591 227.668 41.6273C226.801 42.6425 226.367 44.0596 226.367 45.8784C226.367 47.7185 226.801 49.1567 227.668 50.193C228.556 51.2294 229.783 51.7475 231.348 51.7475C232.3 51.7475 233.124 51.5572 233.822 51.1765C234.52 50.7746 235.038 50.193 235.377 49.4316H238.486C237.957 50.9544 237.058 52.1494 235.789 53.0165C234.541 53.8837 233.04 54.3172 231.284 54.3172ZM253.901 54V31.1581H263.578C265.227 31.1581 266.634 31.4331 267.797 31.983C268.96 32.5329 269.848 33.3154 270.462 34.3306C271.096 35.3458 271.414 36.5514 271.414 37.9472C271.414 39.3643 271.096 40.591 270.462 41.6273C269.848 42.6425 268.95 43.4356 267.765 44.0067C266.602 44.5777 265.206 44.8633 263.578 44.8633H256.471V42.0715H263.419C264.921 42.0715 266.063 41.7119 266.845 40.9928C267.649 40.2737 268.051 39.2691 268.051 37.979C268.051 36.6677 267.659 35.6631 266.877 34.9651C266.094 34.2672 264.942 33.9182 263.419 33.9182H257.264V54H253.901ZM274.527 54V37.8203H277.668V41.8494H277.826V54H274.527ZM277.826 45.5612L277.414 41.7225C277.794 40.3478 278.45 39.3008 279.381 38.5817C280.311 37.8626 281.422 37.5031 282.712 37.5031C283.198 37.5031 283.537 37.5454 283.727 37.63V40.739C283.621 40.6967 283.473 40.6756 283.283 40.6756C283.092 40.6544 282.86 40.6439 282.585 40.6439C280.999 40.6439 279.804 41.0563 279 41.8811C278.217 42.706 277.826 43.9327 277.826 45.5612ZM293.304 54.3172C291.654 54.3172 290.206 53.9577 288.958 53.2386C287.71 52.4984 286.737 51.4937 286.039 50.2247C285.341 48.9346 284.992 47.4753 284.992 45.8467C284.992 44.197 285.341 42.7483 286.039 41.5004C286.758 40.2526 287.731 39.2797 288.958 38.5817C290.206 37.8626 291.654 37.5031 293.304 37.5031C294.975 37.5031 296.434 37.8626 297.682 38.5817C298.93 39.2797 299.892 40.2526 300.569 41.5004C301.267 42.7483 301.616 44.197 301.616 45.8467C301.616 47.4753 301.267 48.9346 300.569 50.2247C299.892 51.4937 298.93 52.4984 297.682 53.2386C296.434 53.9577 294.975 54.3172 293.304 54.3172ZM293.304 51.6206C294.298 51.6206 295.155 51.3774 295.874 50.891C296.614 50.4045 297.196 49.7277 297.619 48.8606C298.042 47.9934 298.253 46.9782 298.253 45.815C298.253 44.0807 297.788 42.7165 296.857 41.7225C295.948 40.7073 294.764 40.1997 293.304 40.1997C291.866 40.1997 290.682 40.7073 289.751 41.7225C288.842 42.7377 288.387 44.1019 288.387 45.815C288.387 46.9782 288.588 47.9934 288.99 48.8606C289.413 49.7277 289.994 50.4045 290.734 50.891C291.496 51.3774 292.352 51.6206 293.304 51.6206ZM302.976 60.8208C302.595 60.8208 302.267 60.7997 301.993 60.7574C301.718 60.7151 301.474 60.6516 301.263 60.567V58.0291C301.411 58.0714 301.612 58.1137 301.866 58.156C302.098 58.1983 302.342 58.2194 302.595 58.2194C303.336 58.2194 303.854 58.0502 304.15 57.7118C304.467 57.3946 304.626 56.9081 304.626 56.2525V37.8203H307.925V56.3476C307.925 57.7647 307.523 58.8645 306.72 59.647C305.937 60.4296 304.689 60.8208 302.976 60.8208ZM304.467 34.6479V30.9361H308.115V34.6479H304.467ZM319.157 54.3172C317.529 54.3172 316.09 53.9577 314.843 53.2386C313.616 52.5195 312.654 51.5255 311.956 50.2565C311.258 48.9875 310.909 47.5281 310.909 45.8784C310.909 44.2076 311.247 42.7483 311.924 41.5004C312.622 40.2314 313.595 39.248 314.843 38.55C316.09 37.8521 317.518 37.5031 319.125 37.5031C320.691 37.5031 322.044 37.8415 323.186 38.5183C324.349 39.1739 325.238 40.094 325.851 41.2783C326.486 42.4627 326.803 43.8692 326.803 45.4977C326.803 45.7515 326.792 45.9948 326.771 46.2274C326.771 46.4389 326.75 46.661 326.708 46.8936H313.129V44.4191H324.392L323.567 45.4026C323.567 43.6683 323.176 42.3464 322.393 41.437C321.611 40.5275 320.521 40.0728 319.125 40.0728C317.624 40.0728 316.429 40.591 315.541 41.6273C314.673 42.6425 314.24 44.0596 314.24 45.8784C314.24 47.7185 314.673 49.1567 315.541 50.193C316.429 51.2294 317.656 51.7475 319.221 51.7475C320.172 51.7475 320.997 51.5572 321.695 51.1765C322.393 50.7746 322.911 50.193 323.25 49.4316H326.359C325.83 50.9544 324.931 52.1494 323.662 53.0165C322.414 53.8837 320.913 54.3172 319.157 54.3172ZM336.679 54.3172C335.135 54.3172 333.76 53.9577 332.555 53.2386C331.349 52.4984 330.398 51.4937 329.7 50.2247C329.023 48.9558 328.685 47.507 328.685 45.8784C328.685 44.2499 329.023 42.8117 329.7 41.5639C330.398 40.2949 331.349 39.3008 332.555 38.5817C333.76 37.8626 335.125 37.5031 336.647 37.5031C337.938 37.5031 339.09 37.7463 340.105 38.2328C341.121 38.7192 341.956 39.396 342.612 40.2632C343.267 41.1303 343.69 42.1561 343.881 43.3405H340.772C340.56 42.3887 340.095 41.6273 339.376 41.0563C338.678 40.4852 337.79 40.1997 336.711 40.1997C335.78 40.1997 334.966 40.4324 334.268 40.8977C333.57 41.3629 333.031 42.0186 332.65 42.8646C332.269 43.7106 332.079 44.7152 332.079 45.8784C332.079 47.0205 332.269 48.0252 332.65 48.8923C333.031 49.7594 333.57 50.4362 334.268 50.9227C334.966 51.388 335.791 51.6206 336.743 51.6206C337.779 51.6206 338.657 51.3457 339.376 50.7958C340.116 50.2247 340.592 49.4634 340.803 48.5116H343.912C343.701 49.6748 343.257 50.69 342.58 51.5572C341.924 52.4243 341.089 53.1011 340.074 53.5876C339.059 54.074 337.927 54.3172 336.679 54.3172ZM353.622 54.3172C351.74 54.3172 350.355 53.8837 349.466 53.0165C348.599 52.1282 348.166 50.8275 348.166 49.1144V34.1085L351.433 32.8713V49.1461C351.433 49.9921 351.655 50.616 352.099 51.0179C352.544 51.4197 353.263 51.6206 354.257 51.6206C354.637 51.6206 354.976 51.5889 355.272 51.5255C355.568 51.462 355.822 51.388 356.033 51.3034V53.9683C355.801 54.074 355.473 54.1586 355.05 54.2221C354.627 54.2855 354.151 54.3172 353.622 54.3172ZM344.93 40.4535V37.8203H356.033V40.4535H344.93Z" fill="white" fill-opacity="0.87"/>
<path d="M229.293 582.707C229.683 583.098 230.317 583.098 230.707 582.707L237.071 576.343C237.462 575.953 237.462 575.319 237.071 574.929C236.681 574.538 236.047 574.538 235.657 574.929L230 580.586L224.343 574.929C223.953 574.538 223.319 574.538 222.929 574.929C222.538 575.319 222.538 575.953 222.929 576.343L229.293 582.707ZM230 582H231L231 150H230H229L229 582H230Z" fill="white" fill-opacity="0.49"/>
</svg>
