<svg width="21" height="18" viewBox="0 0 21 18" fill="none" xmlns="http://www.w3.org/2000/svg">
<path d="M3.0432 3.8147e-06C1.0176 3.8147e-06 0 0.998103 0 3.0039L0 14.8371C0 16.8429 1.0176 17.841 3.0432 17.841L11.4644 17.841C12.5982 17.841 13.5773 17.5503 14.3716 16.7073L20.0796 10.776C20.7093 10.1268 21 9.54544 21 8.93474C21 8.33396 20.7188 7.7427 20.0796 7.0935L14.3621 1.192C13.5574 0.358403 12.5883 0.00950432 11.4545 0.00950432L3.0432 3.8147e-06ZM5.3008 4.6321C5.5335 4.6321 5.737 4.7189 5.9019 4.8744L8.7318 7.7233L11.5711 4.8744C11.7357 4.7194 11.9391 4.6321 12.1719 4.6321C12.6466 4.6321 13.0443 5.0195 13.0443 5.4946C13.0443 5.7175 12.9471 5.9304 12.7822 6.1049L9.9623 8.93474L12.7822 11.7546C12.9471 11.9291 13.0439 12.1425 13.0439 12.3654C13.0439 12.8499 12.647 13.2473 12.1715 13.2473C11.949 13.2473 11.7357 13.1601 11.5612 12.9856L8.7318 10.1557L5.9119 12.9856C5.737 13.1601 5.524 13.2473 5.3012 13.2473C4.8166 13.2473 4.4287 12.8499 4.4287 12.3654C4.4287 12.1421 4.516 11.9291 4.6905 11.7546L7.5104 8.93474L4.6905 6.1049C4.516 5.9304 4.4287 5.7175 4.4287 5.4946C4.4287 5.0195 4.8257 4.6321 5.3008 4.6321Z" fill="#162456" fill-opacity="0.63"/>
</svg>
