<svg width="1440" height="266" viewBox="0 0 1440 266" fill="none" xmlns="http://www.w3.org/2000/svg">
<path d="M-34 265.114V54.7274C474.058 47.7522 1480.78 34.5491 1473.21 54.7274C1445.27 129.191 1030 154 898.5 183C749.305 215.902 552.767 154.204 348 163.5C231.548 168.787 52.7187 271.524 -34 265.114Z" fill="url(#paint0_linear_8_2)"/>
<path d="M-246 143.261V-116H1575V143.261C1540.63 180.089 1407.5 246.803 1225.5 165.5C971.825 52.1782 758.86 141.903 524 125C222.497 103.301 138.406 183.436 -8.70341 105.596C-168.874 20.8435 -213.462 86.7631 -246 143.261Z" fill="url(#paint1_linear_8_2)"/>
<defs>
<linearGradient id="paint0_linear_8_2" x1="-246" y1="76.0061" x2="1575.11" y2="76.0061" gradientUnits="userSpaceOnUse">
<stop stop-color="#A149FF"/>
<stop offset="1" stop-color="#FF902F"/>
</linearGradient>
<linearGradient id="paint1_linear_8_2" x1="-246" y1="29.5019" x2="1575" y2="29.5019" gradientUnits="userSpaceOnUse">
<stop stop-color="#460071"/>
<stop offset="0.576923" stop-color="#3560B4"/>
<stop offset="1" stop-color="#5C92FF"/>
</linearGradient>
</defs>
</svg>
