<svg width="15" height="19" viewBox="0 0 15 19" fill="none" xmlns="http://www.w3.org/2000/svg">
<path fill-rule="evenodd" clip-rule="evenodd" d="M7.5 0.3125C6.28166 0.3125 5.11322 0.796483 4.25173 1.65798C3.39023 2.51947 2.90625 3.68791 2.90625 4.90625V8.1875C2.38411 8.1875 1.88335 8.39492 1.51413 8.76413C1.14492 9.13335 0.9375 9.6341 0.9375 10.1562V16.7188C0.9375 17.2409 1.14492 17.7417 1.51413 18.1109C1.88335 18.4801 2.38411 18.6875 2.90625 18.6875H12.0938C12.6159 18.6875 13.1167 18.4801 13.4859 18.1109C13.8551 17.7417 14.0625 17.2409 14.0625 16.7188V10.1562C14.0625 9.6341 13.8551 9.13335 13.4859 8.76413C13.1167 8.39492 12.6159 8.1875 12.0938 8.1875V4.90625C12.0938 3.68791 11.6098 2.51947 10.7483 1.65798C9.88678 0.796483 8.71834 0.3125 7.5 0.3125ZM10.125 8.1875V4.90625C10.125 4.21006 9.84844 3.54238 9.35615 3.05009C8.86387 2.55781 8.19619 2.28125 7.5 2.28125C6.80381 2.28125 6.13613 2.55781 5.64384 3.05009C5.15156 3.54238 4.875 4.21006 4.875 4.90625V8.1875H10.125Z" fill="white" fill-opacity="0.76"/>
</svg>
