<svg width="50" height="50" viewBox="0 0 50 50" fill="none" xmlns="http://www.w3.org/2000/svg">
<circle cx="25" cy="25" r="24" stroke="white" stroke-opacity="0.84" stroke-width="2"/>
<path d="M24.5 27.8496C27.3633 27.8496 29.9606 28.7278 31.8525 29.9473V29.9482C32.7964 30.5566 33.5745 31.2568 34.1201 31.9873H34.1211C34.6637 32.7127 35 33.5007 35 34.2754C34.9999 34.9748 34.7265 35.5481 34.2754 36.0049L34.0713 36.1934C33.5115 36.6686 32.7228 37.021 31.7861 37.2832C29.9055 37.8082 27.3263 38 24.5 38C21.6729 38 19.094 37.8103 17.2139 37.2842C16.3942 37.0547 15.6882 36.7557 15.1494 36.3662L14.9287 36.1934C14.3562 35.7078 14.0001 35.0747 14 34.2754C14 33.5007 14.3368 32.7126 14.8799 31.9854L14.8789 31.9844C15.4242 31.2559 16.2008 30.5572 17.1455 29.9463L17.1465 29.9473C19.0391 28.7298 21.6382 27.8496 24.5 27.8496ZM24.5 13C25.9108 13 27.2757 13.5915 28.291 14.6641C29.3082 15.7387 29.8887 17.2078 29.8887 18.75C29.8887 20.2922 29.3082 21.7613 28.291 22.8359C27.2757 23.9085 25.9108 24.5 24.5 24.5C23.0892 24.5 21.7243 23.9085 20.709 22.8359C19.6918 21.7613 19.1113 20.2922 19.1113 18.75C19.1113 17.2078 19.6918 15.7387 20.709 14.6641C21.7243 13.5915 23.0892 13 24.5 13Z" stroke="white" stroke-opacity="0.84" stroke-width="2"/>
</svg>
