<svg width="23" height="23" viewBox="0 0 23 23" fill="none" xmlns="http://www.w3.org/2000/svg">
<path d="M13.4167 7.66671V5.75004C13.4167 5.24171 13.2147 4.7542 12.8553 4.39475C12.4958 4.03531 12.0083 3.83337 11.5 3.83337H4.79167C4.28334 3.83337 3.79582 4.03531 3.43638 4.39475C3.07693 4.7542 2.875 5.24171 2.875 5.75004V17.25C2.875 17.7584 3.07693 18.2459 3.43638 18.6053C3.79582 18.9648 4.28334 19.1667 4.79167 19.1667H11.5C12.0083 19.1667 12.4958 18.9648 12.8553 18.6053C13.2147 18.2459 13.4167 17.7584 13.4167 17.25V15.3334" stroke="white" stroke-width="2" stroke-linecap="round" stroke-linejoin="round"/>
<path d="M8.625 11.5H20.125M20.125 11.5L17.25 8.625M20.125 11.5L17.25 14.375" stroke="white" stroke-width="2" stroke-linecap="round" stroke-linejoin="round"/>
</svg>
