<svg width="62" height="62" viewBox="0 0 62 62" fill="none" xmlns="http://www.w3.org/2000/svg">
<path fill-rule="evenodd" clip-rule="evenodd" d="M31.0001 5.16663C16.7323 5.16663 5.16675 16.7322 5.16675 31C5.16675 45.2677 16.7323 56.8333 31.0001 56.8333C45.2678 56.8333 56.8334 45.2677 56.8334 31C56.8334 16.7322 45.2678 5.16663 31.0001 5.16663ZM21.9584 24.5416C21.9584 23.3543 22.1923 22.1785 22.6467 21.0815C23.1011 19.9845 23.7671 18.9878 24.6067 18.1482C25.4463 17.3086 26.443 16.6426 27.54 16.1882C28.637 15.7338 29.8127 15.5 31.0001 15.5C32.1875 15.5 33.3632 15.7338 34.4602 16.1882C35.5572 16.6426 36.5539 17.3086 37.3935 18.1482C38.2331 18.9878 38.8991 19.9845 39.3535 21.0815C39.8079 22.1785 40.0418 23.3543 40.0418 24.5416C40.0418 26.9396 39.0891 29.2394 37.3935 30.9351C35.6979 32.6307 33.3981 33.5833 31.0001 33.5833C28.6021 33.5833 26.3023 32.6307 24.6067 30.9351C22.911 29.2394 21.9584 26.9396 21.9584 24.5416ZM47.1666 43.8753C45.2322 46.3071 42.7736 48.2708 39.9744 49.6199C37.1752 50.9689 34.1075 51.6686 31.0001 51.6666C27.8927 51.6686 24.825 50.9689 22.0258 49.6199C19.2265 48.2708 16.768 46.3071 14.8336 43.8753C19.0212 40.8709 24.7355 38.75 31.0001 38.75C37.2647 38.75 42.979 40.8709 47.1666 43.8753Z" fill="white"/>
</svg>
