<svg width="15" height="18" viewBox="0 0 15 18" fill="none" xmlns="http://www.w3.org/2000/svg">
<path d="M11.6667 4.5C11.6667 5.69347 11.2277 6.83807 10.4463 7.68198C9.66488 8.52589 8.60507 9 7.5 9C6.39493 9 5.33512 8.52589 4.55372 7.68198C3.77232 6.83807 3.33333 5.69347 3.33333 4.5C3.33333 3.30653 3.77232 2.16193 4.55372 1.31802C5.33512 0.474106 6.39493 0 7.5 0C8.60507 0 9.66488 0.474106 10.4463 1.31802C11.2277 2.16193 11.6667 3.30653 11.6667 4.5ZM7.5 9.9C9.49667 9.9 11.3125 10.5246 12.6483 11.4048C13.315 11.844 13.885 12.3624 14.2967 12.9258C14.7017 13.4793 15 14.1417 15 14.85C15 15.6105 14.6575 16.2099 14.1642 16.6374C13.6975 17.0424 13.0817 17.3106 12.4275 17.4978C11.1125 17.8731 9.3575 18 7.5 18C5.6425 18 3.8875 17.874 2.5725 17.4978C1.91833 17.3106 1.3025 17.0424 0.835833 16.6374C0.341667 16.209 0 15.6105 0 14.85C0 14.1417 0.298333 13.4793 0.703333 12.9249C1.115 12.3624 1.68417 11.8449 2.35167 11.4039C3.6875 10.5255 5.50417 9.9 7.5 9.9Z" fill="white" fill-opacity="0.78"/>
</svg>
