<svg width="85" height="28" viewBox="0 0 85 28" fill="none" xmlns="http://www.w3.org/2000/svg">
<path d="M15.7102 0.505027H21.5272L6.79358 27.0425H0.934118V0.505027H6.75112V16.5973L15.7102 0.505027ZM36.6114 0.505027C39.6119 0.561639 41.3952 1.25515 41.9613 2.58556C42.5275 3.91597 42.8105 7.63829 42.8105 13.7525C42.8105 19.8101 42.5275 23.5183 41.9613 24.877C41.3952 26.2074 39.6119 26.9009 36.6114 26.9575V27H34.6582H33.1721H32.6201C32.5069 27 32.3371 27 32.1106 27C31.9125 27 31.7285 27 31.5586 27C31.4171 27 31.2756 27 31.134 27H29.1384V26.9575C26.1662 26.9009 24.3971 26.2074 23.8309 24.877C23.2648 23.5183 22.9817 19.8101 22.9817 13.7525C22.9817 7.63829 23.2648 3.91597 23.8309 2.58556C24.3971 1.25515 26.1662 0.561639 29.1384 0.505027V0.462567H30.7094H32.6201H33.1721H35.0828H36.6114V0.505027ZM32.8749 22.1596C34.7714 22.1596 35.8896 21.7774 36.2292 21.0132C36.5689 20.2489 36.7388 17.8853 36.7388 13.9224C36.7388 13.8374 36.7388 13.7808 36.7388 13.7525C36.7388 9.78959 36.5548 7.42599 36.1868 6.66171C35.8471 5.86913 34.7431 5.45868 32.8749 5.43037C31.0067 5.45868 29.9027 5.86913 29.563 6.66171C29.2234 7.42599 29.0535 9.78959 29.0535 13.7525C29.0535 13.7808 29.0535 13.8374 29.0535 13.9224C29.0535 17.8853 29.2092 20.2489 29.5206 21.0132C29.8603 21.7774 30.9784 22.1596 32.8749 22.1596ZM45.9416 0.335187H84.665V5.21807H59.9534V27.0849H53.4995V5.21807H45.9416V0.335187ZM84.665 27.0849H66.5347V22.202H84.665V27.0849ZM78.4234 16.1727H66.5347V11.2898H78.4234V16.1727Z" fill="url(#paint0_linear_6_21)"/>
<defs>
<linearGradient id="paint0_linear_6_21" x1="86" y1="16.5" x2="0" y2="16.5" gradientUnits="userSpaceOnUse">
<stop stop-color="white" stop-opacity="0.78"/>
<stop offset="1" stop-color="white" stop-opacity="0.83"/>
</linearGradient>
</defs>
</svg>
